<svg width="91mm" height="55mm" viewBox="30 20 491.4 297" fill="none" xmlns="http://www.w3.org/2000/svg" preserveAspectRatio="none">
<g>
<g clip-path="url(#clip0_223_2063)">
<g clip-path="url(#clip1_223_2063)">
<rect width="491.4" height="297" transform="translate(30 20)" fill="#0C1A31"></rect>
<g opacity="0.15">
<g clip-path="url(#clip2_223_2063)">
<path d="M291.619 129.807C291.871 173.126 297.669 218.711 333.217 247.674C349.352 260.77 369.772 270.089 390.193 273.111C390.193 273.111 390.193 273.111 390.445 273.111C390.445 273.111 390.445 228.03 390.445 227.778C390.445 208.385 386.664 188.993 375.823 172.622C364.982 156.252 344.309 145.17 325.653 138.37C323.637 137.615 291.871 129.304 291.871 129.807H291.619Z" fill="#DFA930"></path>
<path d="M412.883 287.215C446.665 286.459 472.885 273.111 472.885 273.111C501.373 260.519 550.786 234.83 571.459 178.667C571.459 178.667 551.29 177.407 532.887 182.193H533.139C533.139 182.444 515.239 189.496 507.172 209.393C497.844 232.059 473.389 269.837 417.925 285.704C417.421 285.704 416.917 285.956 416.412 286.207C416.412 286.207 415.908 286.207 415.656 286.207C414.9 286.207 413.891 286.711 413.135 286.963C413.135 286.963 412.883 286.963 412.631 286.963L412.883 287.215Z" fill="#DFA930"></path>
<path d="M503.894 129.807C503.642 173.126 497.843 218.711 462.296 247.674C446.161 260.77 425.74 270.089 405.32 273.111C405.32 273.111 405.32 273.111 405.068 273.111C405.068 273.111 405.068 228.03 405.068 227.778C405.068 208.385 408.849 188.993 419.69 172.622C431.035 155.496 451.203 145.17 469.859 138.37C471.876 137.615 503.642 129.304 503.642 129.807H503.894Z" fill="#DFA930"></path>
<path d="M407.841 95.8074C406.832 95.0518 405.824 94.2963 404.563 93.5407L396.748 88L388.933 93.5407C387.924 94.2963 386.916 95.0518 385.655 95.8074C372.798 105.63 357.419 124.77 351.368 132.578C351.368 132.578 389.185 153.733 396.496 181.437C404.059 153.733 441.623 132.578 441.623 132.578C435.573 124.519 420.446 105.63 407.337 95.8074H407.841Z" fill="#DFA930"></path>
<path d="M382.882 287.215C349.099 286.459 322.88 273.111 322.88 273.111C294.392 260.519 244.979 234.83 224.306 178.667C224.306 178.667 244.474 177.407 262.878 182.193H262.626C262.626 182.444 280.526 189.496 288.593 209.393C297.921 232.059 322.376 269.837 377.84 285.704C378.344 285.704 378.848 285.956 379.352 286.207C379.352 286.207 379.857 286.207 380.109 286.207C380.865 286.207 381.874 286.711 382.63 286.963C382.63 286.963 382.882 286.963 383.134 286.963L382.882 287.215Z" fill="#DFA930"></path>
</g>
</g>
<g clip-path="url(#clip3_223_2063)">
<path d="M72.7667 49.7889H62.3048C62.1386 49.7889 62 49.937 62 50.1255V52.3329C62 52.5214 62.1386 52.6694 62.3048 52.6694H65.7968V64.5413C65.7968 64.7297 65.9353 64.8778 66.1016 64.8778H68.9561C69.1224 64.8778 69.261 64.7297 69.261 64.5413V52.6694H72.7529C72.9192 52.6694 73.0577 52.5214 73.0577 52.3329V50.1255C73.0577 49.937 72.9192 49.7889 72.7529 49.7889H72.7667Z" fill="white"></path>
<path d="M74.1802 50.3004V64.4201C74.1802 64.6729 74.3911 64.8778 74.6513 64.8778H77.1871C77.4473 64.8778 77.6582 64.6729 77.6582 64.4201V50.3004C77.6582 50.0477 77.4473 49.8428 77.1871 49.8428H74.6513C74.3911 49.8428 74.1802 50.0477 74.1802 50.3004Z" fill="white"></path>
<path d="M96.3234 50.2466V64.4201C96.3234 64.6729 96.5343 64.8778 96.7945 64.8778H99.3303C99.5905 64.8778 99.8014 64.6729 99.8014 64.4201V50.2466C99.8014 49.9938 99.5905 49.7889 99.3303 49.7889H96.7945C96.5343 49.7889 96.3234 49.9938 96.3234 50.2466Z" fill="white"></path>
<path d="M78.6143 49.7889L83.1316 57.6093L78.9468 64.8374H82.1893C82.1893 64.8374 82.4665 64.8778 82.6882 64.5009C82.9099 64.124 86.7759 57.6362 86.7759 57.6362L82.3833 50.2197C82.3833 50.2197 82.1616 49.7755 81.7043 49.7755C81.2471 49.7755 78.6143 49.7755 78.6143 49.7755V49.7889Z" fill="white"></path>
<path d="M94.9377 49.8159L90.4203 57.6362L94.6051 64.8643H91.3626C91.3626 64.8643 91.0855 64.9047 90.8638 64.5278C90.6421 64.1509 86.776 57.6631 86.776 57.6631L91.1686 50.2466C91.1686 50.2466 91.3903 49.8024 91.8476 49.8024C92.3049 49.8024 94.9377 49.8024 94.9377 49.8024V49.8159Z" fill="white"></path>
<path d="M135.663 49.7755L140.18 57.5958L135.995 64.8239H139.238C139.238 64.8239 139.515 64.8643 139.737 64.4874C139.958 64.1105 143.825 57.6228 143.825 57.6228L139.432 50.2062C139.432 50.2062 139.21 49.762 138.753 49.762C138.296 49.762 135.663 49.762 135.663 49.762V49.7755Z" fill="white"></path>
<path d="M152 49.8024L147.483 57.6228L151.667 64.8509H148.425C148.425 64.8509 148.148 64.8912 147.926 64.5144C147.704 64.1375 143.838 57.6497 143.838 57.6497L148.231 50.2331C148.231 50.2331 148.453 49.7889 148.91 49.7889C149.367 49.7889 152 49.7889 152 49.7889V49.8024Z" fill="white"></path>
<path d="M119.104 56.0614V56.0345V52.7906C119.104 52.7906 112.189 56.5594 111.815 56.7882C111.704 56.8555 111.594 56.9094 111.483 56.9497C111.344 57.0036 111.206 57.0305 111.081 57.044C110.845 57.0574 110.513 57.017 110.125 56.7882C109.751 56.5594 102.836 52.7906 102.836 52.7906V56.0345V56.0614V64.5009C102.836 64.7701 103.044 64.9989 103.293 64.9989H105.871C106.12 64.9989 106.328 64.7701 106.328 64.5009V58.0804L110.069 60.2475C111.039 60.8801 111.898 60.2475 111.898 60.2475L115.64 58.0804V64.5009C115.64 64.7701 115.848 64.9989 116.097 64.9989H118.674C118.924 64.9989 119.132 64.7701 119.132 64.5009V56.0614H119.104Z" fill="white"></path>
<path d="M132.088 64.8643H135.122L127.972 49.7486L120.822 64.8643H123.857C123.857 64.8643 126.088 61.9838 129.94 62.4953L129.067 60.9609C129.067 60.9609 127.072 61.0147 125.533 61.5935L127.958 56.8959L132.074 64.8509L132.088 64.8643Z" fill="white"></path>
<path d="M105.122 46.2355C105.136 48.5506 105.455 50.9869 107.409 52.5348C108.296 53.2347 109.418 53.7328 110.54 53.8943C110.54 53.8943 110.54 53.8943 110.554 53.8943C110.554 53.8943 110.554 51.4849 110.554 51.4715C110.554 50.435 110.346 49.3986 109.751 48.5237C109.155 47.6488 108.019 47.0565 106.993 46.6931C106.882 46.6527 105.136 46.2085 105.136 46.2355H105.122Z" fill="#F7B82D"></path>
<path d="M111.788 54.6481C113.644 54.6077 115.085 53.8943 115.085 53.8943C116.651 53.2213 119.367 51.8483 120.503 48.8467C120.503 48.8467 119.395 48.7794 118.383 49.0352H118.397C118.397 49.0486 117.413 49.4255 116.97 50.4889C116.457 51.7003 115.113 53.7193 112.065 54.5673C112.037 54.5673 112.009 54.5808 111.982 54.5942C111.982 54.5942 111.954 54.5942 111.94 54.5942C111.898 54.5942 111.843 54.6211 111.801 54.6346C111.801 54.6346 111.788 54.6346 111.774 54.6346L111.788 54.6481Z" fill="#F7B82D"></path>
<path d="M116.79 46.2355C116.776 48.5506 116.457 50.9869 114.503 52.5348C113.617 53.2347 112.494 53.7328 111.372 53.8943C111.372 53.8943 111.372 53.8943 111.358 53.8943C111.358 53.8943 111.358 51.4849 111.358 51.4715C111.358 50.435 111.566 49.3986 112.162 48.5237C112.785 47.6084 113.894 47.0565 114.919 46.6931C115.03 46.6527 116.776 46.2085 116.776 46.2355H116.79Z" fill="#F7B82D"></path>
<path d="M111.51 44.4184C111.455 44.378 111.4 44.3376 111.33 44.2973L110.901 44.0011L110.471 44.2973C110.416 44.3376 110.36 44.378 110.291 44.4184C109.584 44.9434 108.739 45.9663 108.406 46.3836C108.406 46.3836 110.485 47.5142 110.887 48.9949C111.303 47.5142 113.367 46.3836 113.367 46.3836C113.035 45.9529 112.203 44.9434 111.483 44.4184H111.51Z" fill="#F7B82D"></path>
<path d="M110.139 54.6481C108.282 54.6077 106.841 53.8943 106.841 53.8943C105.275 53.2213 102.559 51.8483 101.423 48.8467C101.423 48.8467 102.531 48.7794 103.543 49.0352H103.529C103.529 49.0486 104.513 49.4255 104.956 50.4889C105.469 51.7003 106.813 53.7193 109.861 54.5673C109.889 54.5673 109.917 54.5808 109.945 54.5942C109.945 54.5942 109.972 54.5942 109.986 54.5942C110.028 54.5942 110.083 54.6211 110.125 54.6346C110.125 54.6346 110.139 54.6346 110.152 54.6346L110.139 54.6481Z" fill="#F7B82D"></path>
</g>





<rect x="62" y="155" width="72" height="1.62" fill="#DFA930"></rect>
<g clip-path="url(#clip4_223_2063)">
<path d="M78.6977 178.615C74.3337 175.679 74.2517 179.967 73.0355 179.15C70.9719 178.382 65.9974 174.647 67.7649 173.254C69.1543 172.13 68.6487 171.354 67.8014 169.431C67.2729 167.769 66.4985 166.846 65.1456 167.02C53.9713 171.765 75.8552 190.585 79.7956 181.602C80.324 180.428 79.7819 179.346 78.6977 178.615Z" fill="#DFA930"></path>
</g>

<path d="M77 199.12H65C64.1716 199.12 63.5 199.792 63.5 200.62V209.62C63.5 210.448 64.1716 211.12 65 211.12H77C77.8284 211.12 78.5 210.448 78.5 209.62V200.62C78.5 199.792 77.8284 199.12 77 199.12Z" stroke="#DFA930" stroke-width="1.125" stroke-linecap="round" stroke-linejoin="round"></path>
<path d="M78.5 201.37L71.7725 205.645C71.541 205.79 71.2732 205.867 71 205.867C70.7268 205.867 70.459 205.79 70.2275 205.645L63.5 201.37" stroke="#DFA930" stroke-width="1.125" stroke-linecap="round" stroke-linejoin="round"></path>

<g clip-path="url(#clip5_223_2063)">
<path d="M78.875 236.683C78.875 238.875 74.8173 240.058 71 240.058C67.1827 240.058 63.125 238.875 63.125 236.683C63.125 235.657 64.0545 234.748 65.7427 234.125C65.8812 234.08 66.032 234.089 66.1633 234.153C66.2947 234.216 66.3963 234.328 66.4468 234.464C66.4974 234.601 66.4928 234.752 66.4341 234.886C66.3754 235.019 66.2672 235.125 66.1323 235.18C64.9714 235.61 64.25 236.185 64.25 236.683C64.25 237.622 66.8178 238.933 71 238.933C75.1822 238.933 77.75 237.622 77.75 236.683C77.75 236.185 77.0286 235.61 75.8677 235.181C75.7328 235.125 75.6246 235.02 75.5659 234.886C75.5072 234.753 75.5026 234.602 75.5532 234.465C75.6037 234.328 75.7053 234.217 75.8367 234.153C75.968 234.09 76.1188 234.08 76.2573 234.126C77.9455 234.748 78.875 235.657 78.875 236.683Z" fill="#DFA930"></path>
<path d="M71 222.858C67.8985 222.858 65.3751 225.28 65.3751 228.254C65.3547 232.605 70.7863 236.212 71 236.358C71 236.358 76.6453 232.605 76.6249 228.258C76.6249 225.28 74.1015 222.858 71 222.858ZM71 230.958C69.4461 230.958 68.1875 229.749 68.1875 228.258C68.1875 226.766 69.4461 225.558 71 225.558C72.5539 225.558 73.8125 226.766 73.8125 228.258C73.8125 229.749 72.5539 230.958 71 230.958Z" fill="#DFA930"></path>
</g>


<g clip-path="url(#clip6_223_2063)">
<path d="M71 279.62C75.1421 279.62 78.5 276.262 78.5 272.12C78.5 267.978 75.1421 264.62 71 264.62C66.8579 264.62 63.5 267.978 63.5 272.12C63.5 276.262 66.8579 279.62 71 279.62Z" stroke="#DFA930" stroke-width="1.3" stroke-linecap="round" stroke-linejoin="round"></path>
<path d="M68 272.12C68 269.328 69.0742 266.642 71 264.62C72.9258 266.642 74 269.328 74 272.12C74 274.912 72.9258 277.598 71 279.62C69.0742 277.598 68 274.912 68 272.12Z" stroke="#DFA930" stroke-width="1.3" stroke-linecap="round" stroke-linejoin="round"></path>
<path d="M63.5 272.12H78.5" stroke="#DFA930" stroke-width="1.3" stroke-linecap="round" stroke-linejoin="round"></path>
</g>

</g>
</g>
</g>
<defs>
<filter id="filter0_d_223_2063" x="0" y="0" width="551" height="357" filterUnits="userSpaceOnUse" color-interpolation-filters="sRGB">
<feFlood flood-opacity="0" result="BackgroundImageFix"></feFlood>
<feColorMatrix in="SourceAlpha" type="matrix" values="0 0 0 0 0 0 0 0 0 0 0 0 0 0 0 0 0 0 127 0" result="hardAlpha"></feColorMatrix>
<feOffset dy="10"></feOffset>
<feGaussianBlur stdDeviation="15"></feGaussianBlur>
<feComposite in2="hardAlpha" operator="out"></feComposite>
<feColorMatrix type="matrix" values="0 0 0 0 0 0 0 0 0 0 0 0 0 0 0 0 0 0 0.14 0"></feColorMatrix>
<feBlend mode="normal" in2="BackgroundImageFix" result="effect1_dropShadow_223_2063"></feBlend>
<feBlend mode="normal" in="SourceGraphic" in2="effect1_dropShadow_223_2063" result="shape"></feBlend>
</filter>
<clipPath id="clip0_223_2063">
<rect width="491" height="297" fill="white" transform="translate(30 20)"></rect>
</clipPath>
<clipPath id="clip1_223_2063">
<rect width="491.4" height="297" fill="white" transform="translate(30 20)"></rect>
</clipPath>
<clipPath id="clip2_223_2063">
<rect width="358" height="204" fill="white" transform="translate(218 88)"></rect>
</clipPath>
<clipPath id="clip3_223_2063">
<rect width="90" height="21" fill="white" transform="translate(62 44)"></rect>
</clipPath>
<clipPath id="clip4_223_2063">
<rect width="18" height="18" fill="white" transform="translate(62 167.12)"></rect>
</clipPath>
<clipPath id="clip5_223_2063">
<rect width="18" height="18" fill="white" transform="translate(62 222.62)"></rect>
</clipPath>
<clipPath id="clip6_223_2063">
<rect width="18" height="18" fill="white" transform="translate(62 263.12)"></rect>
</clipPath>
</defs>
</svg>
